<?xml version="1.0" standalone="no"?>
<!DOCTYPE svg PUBLIC "-//W3C//DTD SVG 20010904//EN"
 "http://www.w3.org/TR/2001/REC-SVG-20010904/DTD/svg10.dtd">
<svg version="1.0" xmlns="http://www.w3.org/2000/svg"
 width="360.000000pt" height="360.000000pt" viewBox="0 0 360.000000 360.000000"
 preserveAspectRatio="xMidYMid meet">
<metadata>
Created by potrace 1.14, written by Peter Selinger 2001-2017
</metadata>
<g transform="translate(0.000000,360.000000) scale(0.100000,-0.100000)"
fill="#000000" stroke="none">
<path d="M531 3430 l-74 -5 -114 -280 -113 -280 2 -1138 3 -1138 393 1 392 0
0 -212 0 -213 221 0 221 0 201 213 201 212 326 0 325 0 428 428 427 427 -2
995 -3 994 -1380 0 c-759 1 -1413 -1 -1454 -4z m2539 -1062 l0 -773 -242 -242
-243 -243 -390 0 -390 1 -212 -218 -212 -218 -1 218 0 217 -315 0 -315 0 0
1015 0 1015 1160 0 1160 0 0 -772z"/>
<path d="M1527 2593 c-4 -3 -7 -199 -7 -435 l0 -428 140 0 140 0 0 435 0 435
-133 0 c-74 0 -137 -3 -140 -7z"/>
<path d="M2300 2165 l0 -435 135 0 135 0 0 435 0 435 -135 0 -135 0 0 -435z"/>
</g>
</svg>
